<?xml version="1.0" encoding="utf-8"?>
<!-- Generator: Adobe Illustrator 15.1.0, SVG Export Plug-In . SVG Version: 6.00 Build 0)  -->
<!DOCTYPE svg PUBLIC "-//W3C//DTD SVG 1.1//EN" "http://www.w3.org/Graphics/SVG/1.1/DTD/svg11.dtd">
<svg version="1.1" id="Layer_1" xmlns="http://www.w3.org/2000/svg" xmlns:xlink="http://www.w3.org/1999/xlink" x="0px" y="0px"
	 width="32px" height="32.042px" viewBox="0 0 32 32.042" enable-background="new 0 0 32 32.042" xml:space="preserve">
<path fill-rule="evenodd" clip-rule="evenodd" fill="#404755" d="M15.979,0C7.131,0-0.042,7.173-0.042,16.021
	c0,8.848,7.173,16.021,16.021,16.021S32,24.869,32,16.021C32,7.173,24.827,0,15.979,0z M16.019,28.042
	c-6.639,0-12.021-5.382-12.021-12.021C3.998,9.382,9.38,4,16.019,4s12.021,5.382,12.021,12.021
	C28.039,22.66,22.657,28.042,16.019,28.042z M17.195,16.004l-1.161-1.239l-2.71-2.779c-0.466-0.478-0.457-1.241,0.021-1.707
	c0.476-0.463,1.24-0.457,1.707,0.021l5.672,5.689l-5.693,5.676c-0.234,0.229-0.539,0.343-0.843,0.343
	c-0.313,0-0.628-0.121-0.864-0.364c-0.466-0.478-0.457-1.242,0.021-1.707l2.829-2.758L17.195,16.004z"/>
</svg>
