<?xml version="1.0" encoding="utf-8"?>
<!-- Generator: Adobe Illustrator 15.1.0, SVG Export Plug-In . SVG Version: 6.00 Build 0)  -->
<!DOCTYPE svg PUBLIC "-//W3C//DTD SVG 1.1//EN" "http://www.w3.org/Graphics/SVG/1.1/DTD/svg11.dtd">
<svg version="1.1" id="Layer_1" xmlns="http://www.w3.org/2000/svg" xmlns:xlink="http://www.w3.org/1999/xlink" x="0px" y="0px"
	 width="9px" height="9px" viewBox="0 0 9 9" enable-background="new 0 0 9 9" xml:space="preserve">
<path fill="#FFFFFF" d="M5.914,4.5l2.793-2.793c0.391-0.391,0.391-1.023,0-1.414s-1.023-0.391-1.414,0L4.5,3.086L1.707,0.293
	c-0.391-0.391-1.023-0.391-1.414,0s-0.391,1.023,0,1.414L3.086,4.5L0.293,7.293c-0.391,0.391-0.391,1.023,0,1.414
	C0.488,8.902,0.744,9,1,9s0.512-0.098,0.707-0.293L4.5,5.914l2.793,2.793C7.488,8.902,7.744,9,8,9s0.512-0.098,0.707-0.293
	c0.391-0.391,0.391-1.023,0-1.414L5.914,4.5z"/>
</svg>
