<?xml version="1.0" encoding="utf-8"?>
<!-- Generator: Adobe Illustrator 15.1.0, SVG Export Plug-In . SVG Version: 6.00 Build 0)  -->
<!DOCTYPE svg PUBLIC "-//W3C//DTD SVG 1.1//EN" "http://www.w3.org/Graphics/SVG/1.1/DTD/svg11.dtd">
<svg version="1.1" id="Layer_1" xmlns="http://www.w3.org/2000/svg" xmlns:xlink="http://www.w3.org/1999/xlink" x="0px" y="0px"
	 width="387.982px" height="327.238px" viewBox="0 0 387.982 327.238" enable-background="new 0 0 387.982 327.238"
	 xml:space="preserve">
<g>
	<path fill="#CDB5CE" d="M271.33,289.828c-0.447,0-0.819-0.061-1.113-0.18l-0.815-0.021c-0.117,0.001-0.217,0.011-0.315,0.019
		c-0.545,0.046-0.995-0.006-1.285-0.158c-15.284-0.807-25.069-6.565-30.775-18.107c-4.749-9.604-7.463-22.585-8.295-39.681
		c-0.229-0.438-0.186-0.962-0.159-1.288c0.01-0.117,0.027-0.233,0.017-0.33l-0.018-0.301c-0.211-0.438-0.172-0.947-0.143-1.322
		c0.01-0.13,0.024-0.328,0.015-0.396l-0.017-0.183v-2.521c-0.21-0.556-0.177-1.196-0.145-1.819c0.016-0.317,0.032-0.646,0.007-0.874
		l-0.007-0.114l0.006-7.739c0.027-0.251,0.01-0.6-0.007-0.938c-0.031-0.649-0.063-1.318,0.146-1.896l0.015-3.133
		c0.014-0.081-0.003-0.313-0.014-0.468c-0.029-0.412-0.067-0.936,0.144-1.387l0.018-0.464c0.009-0.063-0.007-0.261-0.017-0.392
		c-0.03-0.385-0.071-0.914,0.16-1.359c1.119-21.076,3.3-39.917,6.48-56.002c2.834-14.326,7.465-32.382,18.222-44.953
		c0.786-0.911,1.645-1.769,2.554-2.555c6.611-5.882,16.005-9.114,27.911-9.599c1.463-0.24,4.021-0.235,5.457,0.011
		c31.679,2.401,52.116,16.898,69.468,32.204c1.718,1.595,3.382,3.259,4.967,4.965l1.914,2.188
		c11.169,12.746,21.719,24.784,22.258,49.591l0.002,0.113l-0.022,0.111c-0.009,0.081,0.009,0.198,0.019,0.315
		c0.027,0.33,0.071,0.864-0.169,1.306c-1.209,14.743-7.304,26.005-12.931,35.41c-5.789,9.677-12.615,18.636-20.867,27.388
		c-0.319,0.417-0.721,0.839-1.167,1.227v0.066l-0.27,0.288c-1.731,1.852-3.54,3.66-5.376,5.376
		c-9.672,9.209-20.15,17.152-31.138,23.604c-8.936,5.249-22.865,12.359-40.775,13.652c-0.372,0.188-0.761,0.188-0.918,0.188
		c-0.162,0-0.336-0.012-0.51-0.024c-0.129-0.009-0.226-0.014-0.378-0.019c-0.031,0-0.062,0-0.089,0.005l-0.17,0.015h-0.76
		C272.149,289.768,271.777,289.828,271.33,289.828z M271.036,287.809c0.129,0.02,0.459,0.02,0.588,0l0.166-0.16h1.342
		c0.251-0.032,0.548-0.017,0.852,0.005c0.119,0.008,0.237,0.018,0.348,0.019l0.121-0.137l0.409-0.028
		c17.618-1.212,31.363-8.228,40.169-13.4c10.855-6.373,21.21-14.224,30.778-23.334c1.715-1.603,3.399-3.281,5.018-4.999v-0.239
		l0.387-0.3c0.47-0.364,0.895-0.789,1.264-1.264c8.213-8.718,14.953-17.563,20.667-27.115c5.549-9.275,11.563-20.382,12.678-34.844
		l0.039-0.51l0.116-0.07c-0.004-0.033-0.007-0.067-0.01-0.101c-0.019-0.231-0.04-0.489-0.007-0.75
		c-0.546-24.02-10.851-35.778-21.76-48.227l-1.896-2.168c-1.53-1.646-3.16-3.275-4.822-4.82
		c-17.071-15.058-37.186-29.335-68.372-31.704c-1.408-0.233-3.717-0.222-4.938-0.012l-0.13,0.014
		c-11.462,0.457-20.457,3.521-26.736,9.107c-0.847,0.731-1.636,1.521-2.355,2.354c-10.451,12.214-14.99,29.95-17.775,44.037
		c-3.179,16.069-5.353,34.917-6.462,56.019l-0.025,0.47l-0.138,0.103c0.003,0.076,0.01,0.161,0.016,0.229
		c0.019,0.249,0.041,0.528,0.005,0.806v0.951l-0.168,0.148c0.002,0.104,0.012,0.244,0.02,0.349c0.019,0.265,0.04,0.562,0.004,0.852
		v3.347l-0.117,0.22c-0.077,0.167-0.048,0.766-0.03,1.124c0.02,0.396,0.039,0.804,0.003,1.192v7.529
		c0.036,0.374,0.017,0.765-0.003,1.144c-0.017,0.32-0.044,0.858,0.021,1.014l0.134,0.232l-0.007,0.255v2.66
		c0.036,0.277,0.015,0.558-0.004,0.808c-0.006,0.067-0.012,0.152-0.016,0.229l0.164,0.122v0.854
		c0.036,0.265,0.014,0.526-0.006,0.761c-0.003,0.034-0.006,0.067-0.009,0.102l0.132,0.08l0.025,0.531
		c0.789,16.734,3.517,29.925,8.105,39.204c5.39,10.901,14.729,16.307,29.392,17.012l0.531,0.025l0.079,0.131
		c0.034-0.003,0.067-0.006,0.102-0.009c0.276-0.022,0.545-0.033,0.761-0.005h1.188L271.036,287.809z"/>
</g>
<path fill="#94CDEC" d="M194.439,2c0.138,0,0.252,0.007,0.34,0.017l0.293,0.282h0.806h1.283c0.168,0.021,0.345,0.032,0.536,0.032
	c0.234,0,0.489-0.018,0.745-0.039l0.117,0.193l1.063,0.051c12.598,0.606,22.631,3.227,30.673,8.011
	c7.688,4.574,13.585,11.167,18.03,20.158c7.628,15.423,12.161,37.362,13.475,65.208l0.051,1.063l0.194,0.118
	c-0.032,0.393-0.065,0.828-0.007,1.281v0.563v1l0.263,0.197c-0.005,0.07-0.01,0.139-0.015,0.199
	c-0.032,0.427-0.068,0.903-0.008,1.391v4.412v0.536l0.239,0.415c0.071,0.276,0.031,1.06,0.007,1.535
	c-0.033,0.637-0.066,1.295-0.006,1.938v12.519c-0.061,0.667-0.027,1.354,0.006,2.019c0.026,0.546,0.071,1.46-0.011,1.698
	l-0.235,0.441v0.5v2.64v2.501c-0.061,0.507-0.024,1.011,0.008,1.462c0.009,0.123,0.02,0.277,0.026,0.415L262.039,135v0.898v0.812
	c-0.061,0.488-0.024,0.965,0.009,1.392c0.005,0.059,0.01,0.126,0.015,0.195l-0.212,0.158l-0.049,0.938
	c-1.848,35.15-5.47,66.546-10.764,93.318c-4.636,23.439-12.186,52.947-29.553,73.241c-1.187,1.376-2.49,2.679-3.895,3.893
	c-10.406,9.258-25.328,14.337-44.352,15.096l-0.131,0.005l-0.129,0.022c-0.999,0.172-2.449,0.271-3.979,0.271
	c-1.53,0-2.981-0.099-3.981-0.271l-0.093-0.017l-0.094-0.007c-23.625-1.795-44.876-7.694-64.969-18.036
	c-20.046-10.318-36.608-23.979-48.8-34.732c-2.749-2.553-5.445-5.25-8.016-8.015c-1.047-1.202-2.095-2.398-3.14-3.591
	c-18.136-20.696-35.268-40.249-36.184-80.142c0.054-0.444,0.021-0.871-0.01-1.257l0.162-0.098l0.079-1.022
	c1.852-24.032,11.43-41.793,21.083-57.926c9.513-15.9,20.732-30.625,34.298-45.015l0.065-0.069l0.059-0.075
	c0.595-0.766,1.284-1.455,2.048-2.048l0.773-0.601V71.89c2.656-2.816,5.428-5.577,8.26-8.223
	c15.921-15.161,33.159-28.23,51.233-38.844c14.651-8.604,37.517-20.276,66.804-22.29l0.816-0.056l0.189-0.213
	c0.133,0.006,0.272,0.017,0.411,0.026c0.297,0.021,0.595,0.041,0.871,0.041c0.214,0,0.41-0.011,0.594-0.033H193h0.806l0.294-0.282
	C194.187,2.007,194.302,2,194.439,2 M194.439,0c-0.616,0-1.232,0.1-1.439,0.299c-0.561,0-1.121,0-1.682,0
	c-0.139,0.024-0.292,0.033-0.454,0.033c-0.461,0-0.994-0.071-1.456-0.071c-0.416,0-0.774,0.058-0.969,0.278
	c-26.951,1.853-48.82,11.485-67.68,22.56c-19.115,11.225-36.309,24.56-51.6,39.12c-3.061,2.86-6.021,5.82-8.881,8.88
	c0,0.08,0,0.16,0,0.24c-0.9,0.699-1.7,1.499-2.4,2.4c-13.012,13.802-24.607,28.726-34.56,45.36
	c-9.87,16.497-19.503,34.69-21.36,58.8c-0.547,0.333-0.089,1.671-0.239,2.4c0.937,43.076,20.438,62.921,39.84,85.2
	c2.62,2.819,5.34,5.54,8.16,8.159c29.821,26.305,63.132,49.344,114.96,53.28c1.161,0.2,2.741,0.3,4.32,0.3
	c1.579,0,3.158-0.1,4.318-0.3c19.619-0.782,34.807-5.995,45.602-15.6c1.459-1.26,2.82-2.62,4.08-4.08
	c16.127-18.845,24.303-45.354,30-74.16c5.752-29.085,9.086-61.017,10.799-93.601c0.551-0.41,0.088-1.832,0.24-2.64
	c0-0.32,0-0.64,0-0.96c0.551-0.489,0.088-1.993,0.24-2.88c0-0.88,0-1.76,0-2.64s0-1.76,0-2.64c0.557-1.044,0.084-3.117,0.24-4.56
	c0-4.24,0-8.48,0-12.72c-0.156-1.363,0.316-3.356-0.24-4.32c0-1.52,0-3.04,0-4.56c-0.152-0.808,0.309-2.229-0.24-2.64
	c0-0.24,0-0.48,0-0.72c-0.15-0.729,0.309-2.067-0.24-2.4c-1.182-25.045-5.027-48.504-13.68-66
	c-8.992-18.186-24.342-28.027-50.4-29.28c-0.134-0.22-0.43-0.277-0.783-0.277c-0.389,0-0.848,0.07-1.237,0.07
	c-0.138,0-0.266-0.009-0.38-0.032c-0.479,0-0.959,0-1.439,0C195.672,0.1,195.056,0,194.439,0L194.439,0z"/>
</svg>
