<?xml version="1.0" encoding="utf-8"?>
<!-- Generator: Adobe Illustrator 15.1.0, SVG Export Plug-In . SVG Version: 6.00 Build 0)  -->
<!DOCTYPE svg PUBLIC "-//W3C//DTD SVG 1.1//EN" "http://www.w3.org/Graphics/SVG/1.1/DTD/svg11.dtd">
<svg version="1.1" id="Layer_1" xmlns="http://www.w3.org/2000/svg" xmlns:xlink="http://www.w3.org/1999/xlink" x="0px" y="0px"
	 width="22px" height="32px" viewBox="0 0 22 32" enable-background="new 0 0 22 32" xml:space="preserve">
<path fill="#CDB5CE" d="M16,0H6C2.691,0,0,2.691,0,6v20C0,29.309,2.691,32,6,32h10c3.309,0,6-2.691,6-6.001V6
	C22,2.691,19.309,0,16,0z M18,25.999c0,1.104-0.896,2-2,2H6c-1.104,0-2-0.896-2-2V6c0-1.103,0.896-2,2-2h10c1.104,0,2,0.896,2,2
	V25.999z"/>
<path fill="#CDB5CE" d="M7,14h8v-4H7V14z"/>
<path fill="#CDB5CE" d="M7,20h8v-4H7V20z"/>
<path fill="#CDB5CE" d="M11,22c-1.105,0-2,0.895-2,2s0.895,1.999,2,1.999s2-0.894,2-1.999S12.105,22,11,22z"/>
</svg>
