<?xml version="1.0" encoding="utf-8"?>
<!-- Generator: Adobe Illustrator 15.1.0, SVG Export Plug-In . SVG Version: 6.00 Build 0)  -->
<!DOCTYPE svg PUBLIC "-//W3C//DTD SVG 1.1//EN" "http://www.w3.org/Graphics/SVG/1.1/DTD/svg11.dtd">
<svg version="1.1" id="Layer_1" xmlns="http://www.w3.org/2000/svg" xmlns:xlink="http://www.w3.org/1999/xlink" x="0px" y="0px"
	 width="32px" height="32px" viewBox="0 0 32 32" enable-background="new 0 0 32 32" xml:space="preserve">
<path fill="#CDB6CF" d="M26,0H6C2.691,0,0,2.691,0,6v10c0,3.309,2.691,6,6,6h8v6h-4v4h12v-4h-4v-6h8c3.309,0,6-2.691,6-6V6
	C32,2.691,29.309,0,26,0z M28,16c0,1.104-0.896,2-2,2H6c-1.104,0-2-0.896-2-2V6c0-1.104,0.896-2,2-2h20c1.104,0,2,0.896,2,2V16z"/>
</svg>
