<?xml version="1.0" encoding="utf-8"?>
<!-- Generator: Adobe Illustrator 15.1.0, SVG Export Plug-In . SVG Version: 6.00 Build 0)  -->
<!DOCTYPE svg PUBLIC "-//W3C//DTD SVG 1.1//EN" "http://www.w3.org/Graphics/SVG/1.1/DTD/svg11.dtd">
<svg version="1.1" id="Layer_1" xmlns="http://www.w3.org/2000/svg" xmlns:xlink="http://www.w3.org/1999/xlink" x="0px" y="0px"
	 width="44px" height="30px" viewBox="0 0 44 30" enable-background="new 0 0 44 30" xml:space="preserve">
<path fill="#CDB5CE" d="M14,22v4h3v4H7v-4h3v-4H6.071C2.763,22,0,19.309,0,16V6c0-3.309,2.763-6,6.071-6h12
	c0.974,0,1.892,0.238,2.707,0.652C19.706,1.374,19,2.599,19,3.988C19,3.992,19,3.996,19,4H6.071C4.968,4,4,4.896,4,6v10
	c0,1.104,0.968,2,2.071,2h12c0.337,0,0.65-0.092,0.929-0.239v4.16C18.696,21.968,18.388,22,18.071,22H14z M44,24
	c0,3.313-2.687,6-6,6H28c-3.313,0-6-2.687-6-6V6c0-3.313,2.687-6,6-6h10c3.313,0,6,2.687,6,6V24z M40,6c0-1.104-0.896-2-2-2H28
	c-1.104,0-2,0.896-2,2v18c0,1.104,0.896,2,2,2h10c1.104,0,2-0.896,2-2V6z M29,14h8v-4h-8V14z M32.929,18c-1.105,0-2,0.895-2,2
	s0.895,2,2,2s2-0.895,2-2S34.034,18,32.929,18z"/>
</svg>
