<?xml version="1.0" encoding="utf-8"?>
<!-- Generator: Adobe Illustrator 15.1.0, SVG Export Plug-In . SVG Version: 6.00 Build 0)  -->
<!DOCTYPE svg PUBLIC "-//W3C//DTD SVG 1.1//EN" "http://www.w3.org/Graphics/SVG/1.1/DTD/svg11.dtd">
<svg version="1.1" id="Layer_1" xmlns="http://www.w3.org/2000/svg" xmlns:xlink="http://www.w3.org/1999/xlink" x="0px" y="0px"
	 width="24px" height="32px" viewBox="0 0 24 32" enable-background="new 0 0 24 32" xml:space="preserve">
<path fill="#CDB5CE" d="M14.828,0H6C2.691,0,0,2.691,0,6v20c0,3.309,2.691,6,6,6h12c3.309,0,6-2.691,6-6V9.172L14.828,0z M18,28H6
	c-1.104,0-2-0.896-2-2V6c0-1.104,0.896-2,2-2h6v8h8v14C20,27.104,19.103,28,18,28z"/>
<path fill-rule="evenodd" clip-rule="evenodd" fill="#CDB5CE" d="M5.99,16.042h12v4h-12V16.042z"/>
<path fill-rule="evenodd" clip-rule="evenodd" fill="#CDB5CE" d="M5.99,22.042h6v4h-6V22.042z"/>
</svg>
