<?xml version="1.0" encoding="utf-8"?>
<!-- Generator: Adobe Illustrator 15.1.0, SVG Export Plug-In . SVG Version: 6.00 Build 0)  -->
<!DOCTYPE svg PUBLIC "-//W3C//DTD SVG 1.1//EN" "http://www.w3.org/Graphics/SVG/1.1/DTD/svg11.dtd">
<svg version="1.1" id="Layer_1" xmlns="http://www.w3.org/2000/svg" xmlns:xlink="http://www.w3.org/1999/xlink" x="0px" y="0px"
	 width="83.429px" height="69.571px" viewBox="0 0 83.429 69.571" enable-background="new 0 0 83.429 69.571" xml:space="preserve">
<path fill="#FFFFFF" d="M79.429,0v8c0,8.523-3.477,12-12,12H56.37l4.49-4.604c0.771-0.791,0.756-2.057-0.035-2.828
	c-0.789-0.768-2.055-0.758-2.828,0.035l-9.396,9.633l9.432,9.195C58.421,31.811,58.925,32,59.429,32c0.52,0,1.041-0.201,1.432-0.604
	c0.771-0.791,0.756-2.057-0.035-2.828L56.138,24h11.291c10.766,0,16-5.234,16-16V0H79.429z"/>
<path fill="#FFFFFF" d="M37.264,48.241C40.215,46.093,42,42.888,42,39.226c0-3.461-1.594-6.516-4.258-8.654
	c-1.129,0.908-2.447,1.654-3.93,2.186C36.398,34.147,38,36.505,38,39.226c0,3.695-2.939,6.736-7.314,7.564
	c-2.658,0.504-6.107,0.781-9.713,0.781c-3.568,0-6.998-0.277-9.658-0.781C6.939,45.962,4,42.921,4,39.226
	c0-2.721,1.602-5.078,4.189-6.469c-1.484-0.531-2.803-1.277-3.932-2.186C1.594,32.71,0,35.765,0,39.226
	c0,3.662,1.785,6.867,4.736,9.016C1.791,50.382,0,53.569,0,57.226c0,5.678,4.248,10.297,10.57,11.494
	c2.898,0.549,6.592,0.852,10.402,0.852c3.846,0,7.561-0.303,10.459-0.852C37.752,67.522,42,62.903,42,57.226
	C42,53.569,40.209,50.382,37.264,48.241z M30.686,64.79c-2.658,0.504-6.107,0.781-9.713,0.781c-3.568,0-6.998-0.277-9.658-0.781
	C6.939,63.962,4,60.921,4,57.226c0-3.031,1.998-5.602,5.125-6.891c0.477,0.137,0.941,0.289,1.445,0.385
	c2.898,0.549,6.592,0.852,10.402,0.852c3.846,0,7.561-0.303,10.459-0.852c0.502-0.096,0.969-0.248,1.443-0.385
	C36.002,51.626,38,54.194,38,57.226C38,60.921,35.061,63.962,30.686,64.79z"/>
<path fill="#FFFFFF" d="M20.973,32.571l-0.936-0.006c-0.551-0.008-0.994-0.461-0.986-1.014c0.008-0.547,0.453-0.986,1-0.986
	c0.004,0,0.008,0,0.014,0l0.908,0.006c1.02,0,2.035-0.023,3.035-0.066c0.633,0.02,1.02,0.406,1.043,0.957
	c0.023,0.553-0.406,1.02-0.957,1.043C23.066,32.548,22.02,32.571,20.973,32.571z M16.057,32.396c-0.025,0-0.051,0-0.076-0.002
	c-1.438-0.107-2.801-0.262-4.055-0.455c-0.545-0.084-0.918-0.596-0.834-1.143c0.084-0.543,0.598-0.914,1.143-0.834
	c1.199,0.186,2.51,0.334,3.895,0.436c0.551,0.041,0.965,0.521,0.924,1.072C17.014,31.995,16.574,32.396,16.057,32.396z M28.037,32.2
	c-0.502,0-0.936-0.379-0.992-0.891c-0.061-0.549,0.336-1.043,0.885-1.104c1.045-0.115,2.035-0.26,2.941-0.434
	c0.291-0.057,0.58-0.119,0.859-0.193c0.539-0.141,1.082,0.186,1.221,0.717c0.139,0.535-0.184,1.08-0.717,1.221
	c-0.322,0.082-0.65,0.156-0.986,0.221c-0.955,0.182-1.996,0.334-3.1,0.457C28.111,32.198,28.074,32.2,28.037,32.2z M8.221,30.942
	c-0.131,0-0.262-0.025-0.391-0.08c-1.389-0.588-2.613-1.381-3.639-2.355c-0.4-0.381-0.416-1.014-0.035-1.414
	c0.381-0.402,1.014-0.414,1.414-0.035c0.85,0.809,1.873,1.471,3.041,1.965c0.508,0.215,0.746,0.801,0.529,1.311
	C8.98,30.714,8.609,30.942,8.221,30.942z M35.633,29.958c-0.326,0-0.645-0.158-0.836-0.453c-0.303-0.461-0.174-1.082,0.289-1.383
	c1.045-0.686,1.906-1.525,2.559-2.496c0.311-0.463,0.934-0.578,1.387-0.273c0.459,0.309,0.582,0.93,0.273,1.387
	c-0.803,1.197-1.854,2.225-3.125,3.055C36.012,29.905,35.822,29.958,35.633,29.958z M2.637,25.511c-0.396,0-0.771-0.236-0.928-0.627
	C1.238,23.714,1,22.483,1,21.226c0-0.236,0.008-0.473,0.025-0.705c0.043-0.551,0.539-0.975,1.072-0.924
	c0.551,0.043,0.965,0.521,0.924,1.072C3.008,20.854,3,21.04,3,21.226c0,1.002,0.189,1.98,0.564,2.912
	c0.207,0.512-0.043,1.094-0.555,1.301C2.887,25.487,2.762,25.511,2.637,25.511z M39.912,23.487c-0.049,0-0.098-0.004-0.146-0.01
	c-0.547-0.08-0.926-0.588-0.846-1.135c0.055-0.365,0.082-0.736,0.08-1.113c0-1.197-0.268-2.35-0.793-3.426
	c-0.242-0.496-0.037-1.096,0.459-1.338c0.496-0.24,1.094-0.037,1.338,0.459C40.664,18.278,41,19.726,41,21.226
	c0.002,0.471-0.033,0.943-0.1,1.406C40.826,23.13,40.4,23.487,39.912,23.487z M3.191,17.806c-0.17,0-0.342-0.043-0.5-0.135
	c-0.479-0.275-0.643-0.887-0.365-1.365c0.723-1.256,1.709-2.35,2.928-3.254c0.447-0.326,1.072-0.234,1.398,0.207
	c0.33,0.443,0.236,1.07-0.207,1.398c-0.998,0.74-1.801,1.631-2.389,2.648C3.873,17.626,3.537,17.806,3.191,17.806z M36.646,15.247
	c-0.229,0-0.455-0.076-0.643-0.234c-0.9-0.756-1.961-1.359-3.156-1.795c-0.52-0.189-0.787-0.762-0.598-1.281s0.76-0.785,1.281-0.598
	c1.416,0.516,2.68,1.236,3.758,2.143c0.424,0.355,0.479,0.986,0.123,1.408C37.215,15.126,36.932,15.247,36.646,15.247z M9.41,13.075
	c-0.426,0-0.82-0.273-0.955-0.703c-0.164-0.525,0.131-1.088,0.658-1.252c0.523-0.164,1.072-0.299,1.645-0.406
	c0.764-0.146,1.588-0.273,2.451-0.381c0.531-0.078,1.049,0.316,1.117,0.867c0.068,0.549-0.32,1.049-0.867,1.117
	c-0.82,0.104-1.602,0.223-2.33,0.361c-0.494,0.092-0.969,0.211-1.422,0.352C9.609,13.062,9.508,13.075,9.41,13.075z M29.297,12.407
	c-0.047,0-0.094-0.004-0.141-0.01c-1.203-0.168-2.518-0.299-3.904-0.387c-0.551-0.035-0.969-0.51-0.934-1.063
	c0.033-0.529,0.475-0.936,0.998-0.936c0.02,0,0.041,0,0.064,0.002c1.436,0.092,2.799,0.227,4.053,0.402
	c0.547,0.076,0.928,0.582,0.852,1.129C30.215,12.046,29.787,12.407,29.297,12.407z M17.318,11.978c-0.529,0-0.971-0.414-0.998-0.947
	c-0.029-0.551,0.393-1.021,0.945-1.051c1.23-0.066,2.494-0.1,3.762-0.1h0.291c0.553,0,1,0.447,1,1s-0.447,1-1,1h-0.291
	c-1.232,0-2.461,0.033-3.656,0.096C17.354,11.978,17.336,11.978,17.318,11.978z"/>
</svg>
