<?xml version="1.0" encoding="utf-8"?>
<!-- Generator: Adobe Illustrator 15.1.0, SVG Export Plug-In . SVG Version: 6.00 Build 0)  -->
<!DOCTYPE svg PUBLIC "-//W3C//DTD SVG 1.1//EN" "http://www.w3.org/Graphics/SVG/1.1/DTD/svg11.dtd">
<svg version="1.1" id="Layer_1" xmlns="http://www.w3.org/2000/svg" xmlns:xlink="http://www.w3.org/1999/xlink" x="0px" y="0px"
	 width="84.875px" height="66px" viewBox="0 0 84.875 66" enable-background="new 0 0 84.875 66" xml:space="preserve">
<path fill="#FFFFFF" d="M37.875,58v2c0,1.104-0.896,2-2,2H6c-1.104,0-2-0.896-2-2V28c0-1.104,0.896-2,2-2h11.898l-0.023-2.023
	c0-0.002-0.059-4.855-0.059-5.535v-1.059l-0.875-0.596c-1.92-1.307-3.066-3.471-3.066-5.787c0-3.859,3.141-7,7-7s7,3.141,7,7
	c0,2.316-1.146,4.48-3.066,5.787l-0.875,0.596v1.059c0,0.463-0.059,5.535-0.059,5.535L23.852,26h12.023c1.104,0,2,0.896,2,2v2h4v-2
	c0-3.309-2.691-6-6-6h-7.977c0.01-0.867,0.02-1.844,0.027-2.559c2.49-2.08,3.949-5.162,3.949-8.441c0-6.064-4.936-11-11-11
	s-11,4.936-11,11c0,3.279,1.459,6.359,3.949,8.439c0.006,0.723,0.018,1.697,0.027,2.561H6c-3.309,0-6,2.691-6,6v32
	c0,3.309,2.691,6,6,6h29.875c3.309,0,6-2.691,6-6v-2H37.875z"/>
<path fill="#FFFFFF" d="M79.875,66h-3.398c-0.553,0-1-0.447-1-1s0.447-1,1-1h3.398c0.154,0,0.305-0.012,0.453-0.033
	c0.537-0.08,1.055,0.297,1.135,0.842c0.082,0.545-0.295,1.055-0.842,1.135C80.375,65.98,80.127,66,79.875,66z M72.477,66h-4
	c-0.553,0-1-0.447-1-1s0.447-1,1-1h4c0.553,0,1,0.447,1,1S73.029,66,72.477,66z M64.477,66h-4c-0.553,0-1-0.447-1-1s0.447-1,1-1h4
	c0.553,0,1,0.447,1,1S65.029,66,64.477,66z M56.477,66h-4c-0.553,0-1-0.447-1-1s0.447-1,1-1h4c0.553,0,1,0.447,1,1
	S57.029,66,56.477,66z M48.873,64.637c-0.277,0-0.553-0.115-0.75-0.34c-0.805-0.912-1.248-2.084-1.248-3.297v-1.117
	c0-0.553,0.447-1,1-1s1,0.447,1,1V61c0,0.727,0.266,1.428,0.748,1.977c0.365,0.414,0.326,1.045-0.09,1.41
	C49.344,64.555,49.107,64.637,48.873,64.637z M83.525,63.631c-0.139,0-0.277-0.027-0.41-0.088c-0.504-0.229-0.729-0.82-0.502-1.322
	c0.174-0.385,0.262-0.795,0.262-1.221v-2.32c0-0.553,0.447-1,1-1s1,0.447,1,1V61c0,0.711-0.146,1.398-0.438,2.041
	C84.27,63.412,83.906,63.631,83.525,63.631z M47.875,56.883c-0.553,0-1-0.447-1-1v-4c0-0.553,0.447-1,1-1s1,0.447,1,1v4
	C48.875,56.436,48.428,56.883,47.875,56.883z M83.875,55.68c-0.553,0-1-0.447-1-1v-4c0-0.553,0.447-1,1-1s1,0.447,1,1v4
	C84.875,55.232,84.428,55.68,83.875,55.68z M34.293,53.119c-0.535,0-0.98-0.424-1-0.963c-0.02-0.553,0.412-1.016,0.963-1.037
	c1.178-0.043,2.295-0.373,3.32-0.982c0.475-0.283,1.088-0.129,1.371,0.348s0.127,1.09-0.348,1.371
	c-1.299,0.771-2.775,1.209-4.27,1.264C34.316,53.119,34.305,53.119,34.293,53.119z M30.42,52.297c-0.148,0-0.299-0.033-0.439-0.102
	c-1.346-0.66-2.518-1.652-3.395-2.871c-0.322-0.449-0.219-1.074,0.229-1.396c0.449-0.322,1.072-0.221,1.396,0.229
	c0.684,0.953,1.6,1.729,2.648,2.242c0.496,0.244,0.701,0.844,0.459,1.338C31.145,52.092,30.789,52.297,30.42,52.297z M45.758,51h-4
	c-0.553,0-1-0.447-1-1s0.447-1,1-1h4c0.553,0,1,0.447,1,1S46.311,51,45.758,51z M83.875,47.68c-0.553,0-1-0.447-1-1v-4
	c0-0.553,0.447-1,1-1s1,0.447,1,1v4C84.875,47.232,84.428,47.68,83.875,47.68z M25.941,46.059c-0.494,0-0.924-0.367-0.99-0.871
	C24.9,44.799,24.875,44.402,24.875,44c0-1.109,0.197-2.195,0.588-3.227c0.197-0.518,0.775-0.771,1.289-0.582
	c0.518,0.195,0.777,0.773,0.582,1.289c-0.305,0.805-0.459,1.652-0.459,2.52c0,0.316,0.021,0.627,0.061,0.93
	c0.07,0.547-0.316,1.049-0.863,1.121C26.029,46.057,25.984,46.059,25.941,46.059z M46.656,41h-4c-0.553,0-1-0.447-1-1s0.447-1,1-1h4
	c0.553,0,1,0.447,1,1S47.209,41,46.656,41z M83.875,39.68c-0.553,0-1-0.447-1-1v-4c0-0.553,0.447-1,1-1s1,0.447,1,1v4
	C84.875,39.232,84.428,39.68,83.875,39.68z M39.578,39.131c-0.25,0-0.498-0.092-0.693-0.279c-0.85-0.816-1.891-1.414-3.01-1.725
	c-0.531-0.146-0.844-0.697-0.695-1.23c0.148-0.531,0.693-0.848,1.23-0.695c1.438,0.398,2.771,1.162,3.861,2.209
	c0.398,0.383,0.41,1.016,0.027,1.414C40.104,39.027,39.84,39.131,39.578,39.131z M28.658,38.877c-0.277,0-0.555-0.115-0.754-0.342
	c-0.363-0.416-0.32-1.047,0.096-1.412c1.133-0.988,2.504-1.688,3.963-2.02c0.557-0.133,1.076,0.215,1.197,0.752
	c0.123,0.539-0.215,1.074-0.752,1.197c-1.139,0.26-2.209,0.805-3.092,1.578C29.127,38.795,28.893,38.877,28.658,38.877z
	 M47.875,38.219c-0.553,0-1-0.447-1-1v-4c0-0.553,0.447-1,1-1s1,0.447,1,1v4C48.875,37.771,48.428,38.219,47.875,38.219z
	 M83.875,31.68c-0.553,0-1-0.447-1-1V27.5c0-0.203-0.021-0.41-0.063-0.611c-0.113-0.541,0.234-1.07,0.775-1.182
	c0.533-0.123,1.068,0.234,1.182,0.775c0.07,0.336,0.105,0.678,0.105,1.018v3.18C84.875,31.232,84.428,31.68,83.875,31.68z
	 M47.875,29.719c-0.553,0-1-0.447-1-1V27c0-0.959,0.275-1.895,0.797-2.701c0.301-0.463,0.922-0.598,1.383-0.297
	c0.463,0.299,0.598,0.918,0.297,1.383c-0.313,0.482-0.477,1.041-0.477,1.615v1.719C48.875,29.271,48.428,29.719,47.875,29.719z
	 M81.303,24.266c-0.121,0-0.242-0.021-0.361-0.068C80.602,24.066,80.244,24,79.875,24h-4c-0.553,0-1-0.447-1-1s0.447-1,1-1h4
	c0.617,0,1.219,0.111,1.789,0.334c0.516,0.199,0.771,0.777,0.57,1.293C82.082,24.023,81.703,24.266,81.303,24.266z M71.875,24h-4
	c-0.553,0-1-0.447-1-1s0.447-1,1-1h4c0.553,0,1,0.447,1,1S72.428,24,71.875,24z M63.875,24h-4c-0.553,0-1-0.447-1-1s0.447-1,1-1h4
	c0.553,0,1,0.447,1,1S64.428,24,63.875,24z M55.875,24h-4c-0.553,0-1-0.447-1-1s0.447-1,1-1h4c0.553,0,1,0.447,1,1
	S56.428,24,55.875,24z"/>
</svg>
