<?xml version="1.0" encoding="utf-8"?>
<!-- Generator: Adobe Illustrator 15.1.0, SVG Export Plug-In . SVG Version: 6.00 Build 0)  -->
<!DOCTYPE svg PUBLIC "-//W3C//DTD SVG 1.1//EN" "http://www.w3.org/Graphics/SVG/1.1/DTD/svg11.dtd">
<svg version="1.1" id="Layer_1" xmlns="http://www.w3.org/2000/svg" xmlns:xlink="http://www.w3.org/1999/xlink" x="0px" y="0px"
	 width="48px" height="48.143px" viewBox="0 0 48 48.143" enable-background="new 0 0 48 48.143" xml:space="preserve">
<path fill-rule="evenodd" clip-rule="evenodd" fill="#94CDEC" d="M23.929,0C10.634,0-0.143,10.777-0.143,24.072
	c0,13.294,10.777,24.07,24.072,24.07C37.223,48.143,48,37.366,48,24.072C48,10.777,37.223,0,23.929,0z M23.927,44.074
	c-11.085,0-20.072-8.986-20.072-20.072c0-11.085,8.986-20.072,20.072-20.072c11.085,0,20.072,8.986,20.072,20.072
	C43.999,35.088,35.012,44.074,23.927,44.074z M20.291,20.186c-0.162,1.207-0.254,2.49-0.254,3.814s0.092,2.607,0.254,3.814
	c2.484-2.408,6.021-2.494,8.36-1.711C29.468,26.375,30,27.139,30,28v10c0,1.105-0.857,2-1.963,2h-4c-5.869,0-8-9.568-8-16
	s2.131-16,8-16h4C29.143,8,30,8.895,30,10v10c0,0.861-0.532,1.625-1.349,1.896C26.312,22.682,22.775,22.596,20.291,20.186z
	 M24.037,12H26v6.346c-1,0.033-3.696-0.783-4.405-3.424C22.327,13.115,23.233,12,24.037,12z M26,29.646V36h-1.963
	c-0.799,0-1.694-1.094-2.422-2.873C22.49,30.504,25,29.553,26,29.646z"/>
</svg>
