<?xml version="1.0" encoding="utf-8"?>
<!-- Generator: Adobe Illustrator 15.1.0, SVG Export Plug-In . SVG Version: 6.00 Build 0)  -->
<!DOCTYPE svg PUBLIC "-//W3C//DTD SVG 1.1//EN" "http://www.w3.org/Graphics/SVG/1.1/DTD/svg11.dtd">
<svg version="1.1" id="Layer_1" xmlns="http://www.w3.org/2000/svg" xmlns:xlink="http://www.w3.org/1999/xlink" x="0px" y="0px"
	 width="84px" height="74.001px" viewBox="0 0 84 74.001" enable-background="new 0 0 84 74.001" xml:space="preserve">
<path fill="#FFFFFF" d="M19,11.167c-0.273,0-0.547-0.111-0.744-0.332c-0.369-0.412-0.334-1.045,0.076-1.412
	c1.012-0.906,2.092-1.771,3.207-2.568c0.451-0.318,1.074-0.215,1.396,0.232c0.32,0.451,0.217,1.074-0.232,1.396
	c-1.059,0.754-2.078,1.57-3.035,2.428C19.477,11.083,19.238,11.167,19,11.167z M66.586,10.808c-0.232,0-0.467-0.08-0.656-0.246
	c-0.971-0.844-2.004-1.646-3.07-2.383c-0.455-0.314-0.568-0.936-0.254-1.391c0.313-0.457,0.936-0.57,1.391-0.254
	c1.127,0.777,2.219,1.625,3.246,2.52c0.416,0.361,0.461,0.994,0.098,1.41C67.143,10.691,66.865,10.808,66.586,10.808z M25.5,6.533
	c-0.352,0-0.693-0.186-0.875-0.516c-0.268-0.484-0.092-1.092,0.391-1.359l0.455-0.25c1.049-0.564,2.139-1.084,3.238-1.545
	c0.514-0.215,1.096,0.025,1.309,0.535s-0.025,1.096-0.535,1.309c-1.041,0.436-2.072,0.928-3.063,1.463l-0.436,0.238
	C25.83,6.494,25.664,6.533,25.5,6.533z M60.018,6.271c-0.16,0-0.322-0.039-0.473-0.119c-1.141-0.613-2.326-1.166-3.521-1.646
	c-0.512-0.205-0.76-0.787-0.555-1.301s0.787-0.76,1.301-0.555c1.264,0.506,2.516,1.092,3.721,1.74
	c0.486,0.262,0.67,0.867,0.408,1.354C60.719,6.08,60.373,6.271,60.018,6.271z M32.863,3.449c-0.434,0-0.832-0.283-0.959-0.719
	c-0.156-0.531,0.148-1.086,0.678-1.24c1.314-0.385,2.66-0.699,4-0.934c0.531-0.111,1.064,0.266,1.158,0.811
	c0.096,0.545-0.268,1.063-0.811,1.158c-1.27,0.223-2.543,0.52-3.785,0.883C33.051,3.435,32.955,3.449,32.863,3.449z M52.609,3.298
	c-0.088,0-0.178-0.012-0.268-0.037c-1.236-0.342-2.514-0.619-3.797-0.822c-0.547-0.088-0.918-0.6-0.832-1.145
	c0.088-0.547,0.607-0.918,1.145-0.832c1.359,0.217,2.711,0.51,4.02,0.873c0.531,0.146,0.844,0.697,0.695,1.23
	C53.451,3.009,53.049,3.298,52.609,3.298z M40.725,2.072c-0.525,0-0.965-0.408-0.998-0.938c-0.035-0.551,0.385-1.025,0.936-1.061
	c1.359-0.086,2.744-0.098,4.109-0.029c0.553,0.025,0.979,0.494,0.951,1.045c-0.027,0.555-0.521,0.992-1.045,0.951
	c-1.291-0.057-2.607-0.049-3.891,0.029C40.766,2.072,40.744,2.072,40.725,2.072z"/>
<path fill="#FFFFFF" d="M43,74.001c-0.592,0-1.18-0.014-1.766-0.043c-0.551-0.025-0.977-0.494-0.949-1.047
	c0.025-0.535,0.467-0.951,0.998-0.951c0.016,0,0.031,0,0.049,0.002c1.285,0.061,2.605,0.051,3.887-0.029
	c0.609-0.043,1.027,0.387,1.061,0.936c0.035,0.551-0.385,1.025-0.936,1.061C44.568,73.978,43.789,74.001,43,74.001z M37.309,73.554
	c-0.053,0-0.105-0.004-0.158-0.012c-1.354-0.215-2.705-0.508-4.018-0.869c-0.533-0.148-0.846-0.697-0.699-1.23
	c0.148-0.531,0.703-0.838,1.23-0.699c1.242,0.344,2.521,0.619,3.799,0.822c0.547,0.088,0.918,0.6,0.832,1.145
	C38.217,73.203,37.791,73.554,37.309,73.554z M49.246,73.46c-0.477,0-0.898-0.342-0.982-0.828c-0.096-0.545,0.27-1.063,0.813-1.156
	c1.268-0.221,2.541-0.518,3.783-0.883c0.527-0.156,1.086,0.148,1.24,0.678c0.156,0.529-0.146,1.086-0.678,1.24
	c-1.313,0.387-2.66,0.701-4.002,0.934C49.361,73.457,49.305,73.46,49.246,73.46z M29.611,71.429c-0.125,0-0.25-0.023-0.373-0.072
	c-1.256-0.504-2.508-1.088-3.723-1.738c-0.486-0.26-0.67-0.865-0.408-1.354c0.26-0.486,0.867-0.672,1.354-0.408
	c1.148,0.613,2.334,1.168,3.523,1.645c0.512,0.205,0.76,0.787,0.555,1.301C30.383,71.193,30.008,71.429,29.611,71.429z
	 M56.908,71.214c-0.391,0-0.762-0.23-0.922-0.613c-0.215-0.51,0.025-1.096,0.535-1.309c1.189-0.5,2.365-1.07,3.494-1.699
	c0.48-0.268,1.092-0.098,1.359,0.387c0.27,0.482,0.096,1.092-0.387,1.359c-1.191,0.664-2.436,1.27-3.693,1.797
	C57.168,71.189,57.037,71.214,56.908,71.214z M22.578,67.654c-0.197,0-0.395-0.057-0.568-0.176
	c-1.119-0.773-2.213-1.619-3.248-2.518c-0.416-0.363-0.461-0.994-0.1-1.412c0.365-0.414,0.996-0.461,1.412-0.1
	c0.979,0.85,2.012,1.652,3.072,2.381c0.453,0.314,0.568,0.938,0.256,1.393C23.207,67.503,22.895,67.654,22.578,67.654z
	 M63.879,67.33c-0.313,0-0.619-0.146-0.814-0.42c-0.32-0.449-0.215-1.074,0.234-1.395c1.049-0.748,2.07-1.564,3.033-2.428
	c0.41-0.371,1.041-0.338,1.412,0.076c0.369,0.412,0.334,1.045-0.076,1.412c-1.02,0.914-2.1,1.777-3.209,2.568
	C64.283,67.269,64.08,67.33,63.879,67.33z"/>
<path fill="#FFFFFF" d="M72.033,14.585h-7c-0.553,0-1-0.447-1-1s0.447-1,1-1h5v-5c0-0.553,0.447-1,1-1s1,0.447,1,1V14.585z"/>
<path fill="#FFFFFF" d="M15.973,67.441L15.973,67.441c-0.553,0-1-0.447-1-1l0.002-7h6.998c0.553,0,1,0.447,1,1s-0.447,1-1,1h-4.998
	l-0.002,5C16.973,66.994,16.526,67.441,15.973,67.441z"/>
<path fill="#FFFFFF" d="M82.34,38.178c-2.5-2.748-6.92-2.748-8.373-2.748c-2.736,0-6-0.693-6-4c0-0.525,0-2.121,2.277-2.963
	c3.057-1.139,7.771-0.07,9.705,2.18l3.035-2.602c-1.617-1.887-4.23-3.176-7.018-3.725V21.43h-4v2.652
	c-1.082,0.088-2.141,0.273-3.111,0.633c-3.107,1.15-4.889,3.598-4.889,6.715c0,4.936,3.832,8,10,8c2.725,0,4.545,0.484,5.414,1.439
	c0.5,0.549,0.693,1.324,0.596,2.371c-0.039,0.41-0.158,1.652-2.307,2.426c-3.234,1.164-8.457,0.264-10.539-1.816l-2.828,2.828
	c1.746,1.746,4.637,2.908,7.664,3.32v3.432h4v-3.375c1.072-0.109,2.115-0.287,3.059-0.625c2.926-1.053,4.678-3.117,4.932-5.811
	C84.219,40.877,83.221,39.147,82.34,38.178z"/>
<path fill="#FFFFFF" d="M14.828,20.573H6c-3.309,0-6,2.691-6,6v20c0,3.309,2.691,6,6,6h12c3.309,0,6-2.691,6-6V29.745L14.828,20.573
	z M18,48.573H6c-1.104,0-2-0.896-2-2v-20c0-1.104,0.896-2,2-2h6v8h8v14C20,47.676,19.104,48.573,18,48.573z"/>
<path fill="#FFFFFF" d="M49.137,35.147C50.283,33.901,51,32.252,51,30.43c0-3.859-3.141-7-7-7s-7,3.141-7,7
	c0,1.822,0.717,3.471,1.863,4.717C33.965,36.631,31,40.342,31,45.43c0,3.309,2.691,6,6,6h14c3.309,0,6-2.691,6-6
	C57,40.342,54.035,36.631,49.137,35.147z M44,27.43c1.654,0,3,1.346,3,3s-1.346,3-3,3s-3-1.346-3-3S42.346,27.43,44,27.43z
	 M51,47.43H37c-1.104,0-2-0.896-2-2c0-6.496,6.889-7,9-7s9,0.504,9,7C53,46.534,52.104,47.43,51,47.43z"/>
</svg>
